G75*
%MOIN*%
%OFA0B0*%
%FSLAX24Y24*%
%IPPOS*%
%LPD*%
%AMOC8*
5,1,8,0,0,1.08239X$1,22.5*
%
%ADD10C,0.0820*%
%ADD11C,0.0635*%
%ADD12C,0.0753*%
%ADD13C,0.0730*%
%ADD14C,0.0710*%
D10*
X001750Y001300D03*
X002750Y001300D03*
X003750Y001300D03*
X008650Y001150D03*
X008650Y002150D03*
X008650Y003150D03*
X008650Y004150D03*
X008650Y005150D03*
X008650Y006150D03*
X008650Y007150D03*
X008650Y008150D03*
X008650Y009150D03*
X008650Y010150D03*
X008650Y011150D03*
X008650Y012150D03*
X008650Y013150D03*
X007150Y013650D03*
X008150Y014650D03*
X010650Y014650D03*
X011650Y013150D03*
X012650Y013150D03*
X013650Y013150D03*
X014650Y014650D03*
X016650Y013150D03*
X016650Y012150D03*
X016650Y011150D03*
X016650Y010150D03*
X016650Y009150D03*
X016650Y008150D03*
X016650Y007150D03*
X016650Y006150D03*
X016650Y005150D03*
X016650Y004150D03*
X016650Y003150D03*
X016650Y002150D03*
X016650Y001150D03*
X018260Y000870D03*
X020040Y000870D03*
X020040Y003430D03*
X018260Y003430D03*
X007150Y009650D03*
X005150Y009650D03*
X003150Y011150D03*
X001150Y011150D03*
X001650Y013650D03*
X004150Y014650D03*
X005150Y013650D03*
X001650Y017150D03*
X019150Y014150D03*
D11*
X010650Y012150D03*
D12*
X006650Y007650D03*
X004650Y007650D03*
X004150Y008650D03*
X001150Y008650D03*
X004650Y004650D03*
X006650Y004650D03*
D13*
X006150Y010666D03*
X006150Y012634D03*
D14*
X006044Y016783D03*
X005256Y016783D03*
X008813Y016783D03*
X009600Y016783D03*
X010387Y016783D03*
X013313Y016783D03*
X014100Y016783D03*
X014887Y016783D03*
X017913Y016783D03*
X018700Y016783D03*
X019487Y016783D03*
X019233Y011937D03*
X019233Y011150D03*
X019233Y010363D03*
X019233Y007387D03*
X019233Y006600D03*
X019233Y005813D03*
X007044Y002800D03*
X006256Y002800D03*
X001517Y004756D03*
X001517Y005544D03*
M02*
