G75*
%MOIN*%
%OFA0B0*%
%FSLAX24Y24*%
%IPPOS*%
%LPD*%
%AMOC8*
5,1,8,0,0,1.08239X$1,22.5*
%
%ADD10C,0.0080*%
%ADD11C,0.0110*%
%ADD12R,0.1000X0.1000*%
%ADD13C,0.0120*%
D10*
X009290Y000940D02*
X009500Y000940D01*
X009570Y001010D01*
X009570Y001150D01*
X009500Y001220D01*
X009290Y001220D01*
X009290Y001360D02*
X009290Y000940D01*
X009751Y000940D02*
X009751Y001150D01*
X009821Y001220D01*
X010031Y001220D01*
X010031Y000940D01*
X010211Y001010D02*
X010211Y001150D01*
X010351Y001150D01*
X010211Y001010D02*
X010281Y000940D01*
X010421Y000940D01*
X010491Y001010D01*
X010491Y001290D01*
X010421Y001360D01*
X010281Y001360D01*
X010211Y001290D01*
X010414Y001940D02*
X010414Y002360D01*
X010204Y002360D01*
X010134Y002290D01*
X010134Y002150D01*
X010204Y002080D01*
X010414Y002080D01*
X009954Y002010D02*
X009884Y001940D01*
X009814Y002010D01*
X009744Y001940D01*
X009674Y002010D01*
X009674Y002220D01*
X009494Y002220D02*
X009494Y001940D01*
X009494Y002080D02*
X009354Y002220D01*
X009283Y002220D01*
X009954Y002220D02*
X009954Y002010D01*
X015440Y001954D02*
X015510Y001884D01*
X015790Y001884D01*
X015720Y001814D02*
X015720Y001954D01*
X015650Y002121D02*
X015510Y002121D01*
X015440Y002191D01*
X015440Y002331D01*
X015580Y002401D02*
X015580Y002121D01*
X015650Y002121D02*
X015720Y002191D01*
X015720Y002331D01*
X015650Y002401D01*
X015580Y002401D01*
X015440Y002581D02*
X015440Y002721D01*
X015440Y002651D02*
X015720Y002651D01*
X015720Y002581D01*
X015860Y002651D02*
X015930Y002651D01*
X015720Y002888D02*
X015720Y003098D01*
X015650Y003168D01*
X015440Y003168D01*
X015510Y003348D02*
X015440Y003418D01*
X015440Y003559D01*
X015510Y003629D01*
X015650Y003629D01*
X015720Y003559D01*
X015720Y003418D01*
X015650Y003348D01*
X015510Y003348D01*
X015440Y002888D02*
X015720Y002888D01*
X015650Y001634D02*
X015510Y001634D01*
X015440Y001564D01*
X015440Y001423D01*
X015510Y001353D01*
X015650Y001353D01*
X015720Y001423D01*
X015720Y001564D01*
X015650Y001634D01*
X015860Y001173D02*
X015440Y001173D01*
X015720Y001033D02*
X015860Y001173D01*
X015720Y001033D02*
X015860Y000893D01*
X015440Y000893D01*
X015440Y004269D02*
X015860Y004269D01*
X015860Y004479D01*
X015790Y004549D01*
X015650Y004549D01*
X015580Y004479D01*
X015580Y004269D01*
X015580Y004409D02*
X015440Y004549D01*
X015650Y004730D02*
X015650Y005010D01*
X015440Y004940D02*
X015860Y004940D01*
X015650Y004730D01*
D11*
X013043Y008805D02*
X012846Y009002D01*
X012846Y009396D01*
X012891Y009658D02*
X012792Y009757D01*
X012792Y010249D01*
X013087Y010249D01*
X013186Y010150D01*
X013186Y009953D01*
X013087Y009855D01*
X012792Y009855D01*
X012891Y009658D02*
X012989Y009658D01*
X013240Y009396D02*
X013240Y009002D01*
X013043Y008805D01*
X012595Y008903D02*
X012497Y008805D01*
X012300Y008805D01*
X012201Y008903D01*
X012201Y009002D01*
X012300Y009100D01*
X012398Y009100D01*
X012300Y009100D02*
X012201Y009199D01*
X012201Y009297D01*
X012300Y009396D01*
X012497Y009396D01*
X012595Y009297D01*
X012344Y009658D02*
X012246Y009658D01*
X012148Y009757D01*
X012148Y010249D01*
X012443Y010249D01*
X012541Y010150D01*
X012541Y009953D01*
X012443Y009855D01*
X012148Y009855D01*
X011897Y009953D02*
X011897Y010150D01*
X011798Y010249D01*
X011601Y010249D01*
X011503Y010150D01*
X011503Y010052D01*
X011897Y010052D01*
X011897Y009953D02*
X011798Y009855D01*
X011601Y009855D01*
X011252Y009855D02*
X011252Y010249D01*
X011055Y010249D02*
X010957Y010249D01*
X011055Y010249D02*
X011252Y010052D01*
X011261Y010905D02*
X010966Y010905D01*
X010966Y011299D01*
X010715Y011200D02*
X010617Y011102D01*
X010420Y011102D01*
X010321Y011003D01*
X010420Y010905D01*
X010715Y010905D01*
X010715Y011200D02*
X010617Y011299D01*
X010321Y011299D01*
X010071Y011200D02*
X010071Y011003D01*
X009972Y010905D01*
X009775Y010905D01*
X009677Y011102D02*
X010071Y011102D01*
X010071Y011200D02*
X009972Y011299D01*
X009775Y011299D01*
X009677Y011200D01*
X009677Y011102D01*
X011261Y010905D02*
X011360Y011003D01*
X011360Y011299D01*
X011610Y011200D02*
X011610Y011003D01*
X011709Y010905D01*
X011906Y010905D01*
X012004Y011003D01*
X012004Y011200D01*
X011906Y011299D01*
X011709Y011299D01*
X011610Y011200D01*
X012255Y011200D02*
X012255Y010905D01*
X012255Y011200D02*
X012353Y011299D01*
X012550Y011299D01*
X012649Y011200D01*
X012649Y010905D02*
X012649Y011496D01*
X012900Y011200D02*
X012900Y010905D01*
X013293Y010905D02*
X013293Y011299D01*
X012998Y011299D01*
X012900Y011200D01*
X013544Y011200D02*
X013544Y011102D01*
X013938Y011102D01*
X013938Y011200D02*
X013938Y011003D01*
X013839Y010905D01*
X013643Y010905D01*
X013544Y011200D02*
X013643Y011299D01*
X013839Y011299D01*
X013938Y011200D01*
X014189Y011200D02*
X014189Y011102D01*
X014582Y011102D01*
X014582Y011200D02*
X014582Y011003D01*
X014484Y010905D01*
X014287Y010905D01*
X014189Y011200D02*
X014287Y011299D01*
X014484Y011299D01*
X014582Y011200D01*
X014824Y011299D02*
X014923Y011299D01*
X015119Y011102D01*
X015119Y010905D02*
X015119Y011299D01*
X015370Y011397D02*
X015469Y011496D01*
X015666Y011496D01*
X015764Y011397D01*
X015764Y011003D01*
X015666Y010905D01*
X015469Y010905D01*
X015370Y011003D01*
X015370Y011200D01*
X015567Y011200D01*
X014475Y010446D02*
X014475Y009855D01*
X014081Y009855D01*
X013830Y009953D02*
X013732Y009855D01*
X013535Y009855D01*
X013437Y009953D01*
X013437Y010150D01*
X013535Y010249D01*
X013732Y010249D01*
X013830Y010150D01*
X013830Y009953D01*
D12*
X012650Y005650D03*
D13*
X012650Y006150D02*
X012650Y006650D01*
X013150Y007150D01*
X012650Y007150D02*
X013150Y007650D01*
X012650Y007650D02*
X013150Y008150D01*
X012650Y007650D02*
X012150Y008150D01*
X012150Y007650D02*
X012650Y007150D01*
X012650Y007650D01*
X012650Y007150D02*
X012650Y006650D01*
X012150Y007150D01*
M02*
