%
M48
M72
T01C0.0276
T02C0.0315
T03C0.0354
T04C0.0400
T05C0.0433
%
T01
X1517Y4756
X1517Y5544
X6256Y2800
X7044Y2800
X6150Y10666
X6150Y12634
X6044Y16783
X5256Y16783
X8813Y16783
X9600Y16783
X10387Y16783
X13313Y16783
X14100Y16783
X14887Y16783
X17913Y16783
X18700Y16783
X19487Y16783
X19233Y11937
X19233Y11150
X19233Y10363
X19233Y7387
X19233Y6600
X19233Y5813
T02
X10650Y12150
X3150Y11150
X1150Y11150
T03
X5150Y9650
X7150Y9650
X7150Y13650
X8150Y14650
X10650Y14650
X14650Y14650
X5150Y13650
X4150Y14650
T04
X1750Y1300
X2750Y1300
X3750Y1300
X8650Y1150
X8650Y2150
X8650Y3150
X8650Y4150
X8650Y5150
X8650Y6150
X8650Y7150
X8650Y8150
X8650Y9150
X8650Y10150
X8650Y11150
X8650Y12150
X8650Y13150
X11650Y13150
X12650Y13150
X13650Y13150
X16650Y13150
X16650Y12150
X16650Y11150
X16650Y10150
X16650Y9150
X16650Y8150
X16650Y7150
X16650Y6150
X16650Y5150
X16650Y4150
X16650Y3150
X16650Y2150
X16650Y1150
X18260Y870
X20040Y870
X20040Y3430
X18260Y3430
X19150Y14150
X1650Y13650
X1650Y17150
T05
X1150Y8650
X4150Y8650
X4650Y7650
X6650Y7650
X6650Y4650
X4650Y4650
M30
