G75*
%MOIN*%
%OFA0B0*%
%FSLAX24Y24*%
%IPPOS*%
%LPD*%
%AMOC8*
5,1,8,0,0,1.08239X$1,22.5*
%
%ADD10C,0.0080*%
%ADD11C,0.0060*%
%ADD12C,0.0170*%
%ADD13C,0.0050*%
%ADD14R,0.0736X0.0200*%
%ADD15R,0.0335X0.0250*%
%ADD16R,0.0200X0.0736*%
%ADD17R,0.0250X0.0335*%
D10*
X000461Y000444D02*
X005039Y000444D01*
X005039Y002156D01*
X000461Y002156D01*
X000461Y000444D01*
X000770Y002190D02*
X000930Y002190D01*
X001010Y002270D01*
X001010Y002590D01*
X000930Y002670D01*
X000770Y002670D01*
X000690Y002590D01*
X000690Y002270D01*
X000770Y002190D01*
X001206Y002430D02*
X001366Y002430D01*
X001286Y002590D02*
X001366Y002670D01*
X001286Y002590D02*
X001286Y002190D01*
X001629Y002190D02*
X001629Y002590D01*
X001710Y002670D01*
X001710Y002430D02*
X001549Y002430D01*
X001893Y002190D02*
X002213Y002670D01*
X002409Y002590D02*
X002409Y002270D01*
X002489Y002190D01*
X002649Y002190D01*
X002729Y002270D01*
X002729Y002590D01*
X002649Y002670D01*
X002489Y002670D01*
X002409Y002590D01*
X002924Y002510D02*
X002924Y002190D01*
X003245Y002190D02*
X003245Y002430D01*
X003165Y002510D01*
X002924Y002510D01*
X002186Y003989D02*
X002186Y004756D01*
X001989Y004756D01*
X001989Y005544D01*
X002186Y005544D01*
X002186Y006311D01*
X000414Y006311D01*
X000414Y003989D01*
X002186Y003989D01*
X002410Y004270D02*
X002490Y004190D01*
X002570Y004190D01*
X002650Y004270D01*
X002650Y004430D01*
X002730Y004510D01*
X002810Y004510D01*
X002890Y004430D01*
X002890Y004270D01*
X002810Y004190D01*
X002410Y004270D02*
X002410Y004430D01*
X002490Y004510D01*
X002650Y004706D02*
X002810Y004706D01*
X002890Y004786D01*
X002890Y004946D01*
X002810Y005026D01*
X002650Y005026D01*
X002570Y004946D01*
X002570Y004786D01*
X002650Y004706D01*
X002890Y005221D02*
X002890Y005381D01*
X002890Y005301D02*
X002410Y005301D01*
X002410Y005221D01*
X002570Y005645D02*
X002570Y005805D01*
X002650Y005885D01*
X002890Y005885D01*
X002890Y005645D01*
X002810Y005565D01*
X002730Y005645D01*
X002730Y005885D01*
X002730Y006081D02*
X002570Y006241D01*
X002570Y006321D01*
X002570Y006081D02*
X002890Y006081D01*
X001910Y006950D02*
X001389Y006950D01*
X001650Y006690D02*
X001650Y007210D01*
X001708Y009190D02*
X001428Y009190D01*
X001568Y009190D02*
X001568Y009610D01*
X001428Y009470D01*
X001888Y009610D02*
X001888Y009190D01*
X002168Y009190D02*
X002168Y009610D01*
X002348Y009610D02*
X002348Y009400D01*
X002489Y009470D01*
X002559Y009470D01*
X002629Y009400D01*
X002629Y009260D01*
X002559Y009190D01*
X002418Y009190D01*
X002348Y009260D01*
X002168Y009190D02*
X001888Y009610D01*
X002348Y009610D02*
X002629Y009610D01*
X002809Y009540D02*
X002809Y009470D01*
X002879Y009400D01*
X003019Y009400D01*
X003089Y009330D01*
X003089Y009260D01*
X003019Y009190D01*
X002879Y009190D01*
X002809Y009260D01*
X002809Y009330D01*
X002879Y009400D01*
X003019Y009400D02*
X003089Y009470D01*
X003089Y009540D01*
X003019Y009610D01*
X002879Y009610D01*
X002809Y009540D01*
X003269Y009470D02*
X003409Y009610D01*
X003409Y009190D01*
X003269Y009190D02*
X003549Y009190D01*
X003730Y009190D02*
X003730Y009260D01*
X004010Y009540D01*
X004010Y009610D01*
X003730Y009610D01*
X003650Y010550D02*
X003650Y011750D01*
X000650Y011750D01*
X000650Y010550D01*
X003650Y010550D01*
X004678Y010410D02*
X004678Y012890D01*
X005622Y012890D01*
X005622Y010410D01*
X004678Y010410D01*
X005900Y011650D02*
X006400Y011650D01*
X006678Y010410D02*
X006678Y012890D01*
X007622Y012890D01*
X007622Y010410D01*
X006678Y010410D01*
X004121Y011940D02*
X004121Y012220D01*
X003981Y012360D01*
X003841Y012220D01*
X003841Y011940D01*
X003661Y011940D02*
X003381Y011940D01*
X003521Y011940D02*
X003521Y012360D01*
X003381Y012220D01*
X003220Y012010D02*
X003220Y011940D01*
X003150Y011940D01*
X003150Y012010D01*
X003220Y012010D01*
X002970Y012010D02*
X002900Y011940D01*
X002760Y011940D01*
X002690Y012010D01*
X002970Y012290D01*
X002970Y012010D01*
X002690Y012010D02*
X002690Y012290D01*
X002760Y012360D01*
X002900Y012360D01*
X002970Y012290D01*
X002351Y012150D02*
X002351Y012080D01*
X002071Y012080D01*
X002071Y012010D02*
X002071Y012150D01*
X002141Y012220D01*
X002281Y012220D01*
X002351Y012150D01*
X002281Y011940D02*
X002141Y011940D01*
X002071Y012010D01*
X001891Y012010D02*
X001821Y012080D01*
X001681Y012080D01*
X001611Y012150D01*
X001681Y012220D01*
X001891Y012220D01*
X001891Y012010D02*
X001821Y011940D01*
X001611Y011940D01*
X001431Y011940D02*
X001431Y012220D01*
X001431Y011940D02*
X001220Y011940D01*
X001150Y012010D01*
X001150Y012220D01*
X000970Y012360D02*
X000690Y012360D01*
X000690Y011940D01*
X000690Y012150D02*
X000830Y012150D01*
X000720Y013076D02*
X000440Y013076D01*
X000720Y013076D02*
X000860Y013216D01*
X000720Y013356D01*
X000440Y013356D01*
X000580Y013537D02*
X000580Y013607D01*
X000860Y013607D01*
X000860Y013537D02*
X000860Y013677D01*
X000860Y013843D02*
X000580Y013843D01*
X000580Y014054D01*
X000650Y014124D01*
X000860Y014124D01*
X001150Y013900D02*
X001150Y013400D01*
X001400Y013150D01*
X001900Y013150D01*
X002150Y013400D01*
X002150Y013900D01*
X001900Y014150D01*
X001400Y014150D01*
X001150Y013900D01*
X000440Y013607D02*
X000370Y013607D01*
X000510Y016615D02*
X000440Y016685D01*
X000440Y016825D01*
X000510Y016895D01*
X000580Y016895D01*
X000650Y016825D01*
X000720Y016895D01*
X000790Y016895D01*
X000860Y016825D01*
X000860Y016685D01*
X000790Y016615D01*
X000650Y016755D02*
X000650Y016825D01*
X000790Y017075D02*
X000790Y017145D01*
X000860Y017145D01*
X000860Y017075D01*
X000790Y017075D01*
X000790Y017305D02*
X000860Y017375D01*
X000860Y017515D01*
X000790Y017585D01*
X000720Y017585D01*
X000650Y017515D01*
X000650Y017445D01*
X000650Y017515D02*
X000580Y017585D01*
X000510Y017585D01*
X000440Y017515D01*
X000440Y017375D01*
X000510Y017305D01*
X001150Y017400D02*
X001150Y016900D01*
X001400Y016650D01*
X001900Y016650D01*
X002150Y016900D01*
X002150Y017400D01*
X001900Y017650D01*
X001400Y017650D01*
X001150Y017400D01*
X003794Y016220D02*
X004315Y016220D01*
X004489Y016114D02*
X005256Y016114D01*
X005256Y016311D01*
X006044Y016311D01*
X006044Y016114D01*
X006811Y016114D01*
X006811Y017886D01*
X004489Y017886D01*
X004489Y016114D01*
X004054Y015960D02*
X004054Y016481D01*
X004541Y015720D02*
X004752Y015720D01*
X004822Y015650D01*
X004822Y015510D01*
X004752Y015440D01*
X004541Y015440D01*
X004541Y015300D02*
X004541Y015720D01*
X005002Y015650D02*
X005072Y015720D01*
X005212Y015720D01*
X005282Y015650D01*
X005282Y015440D01*
X005462Y015510D02*
X005462Y015650D01*
X005532Y015720D01*
X005672Y015720D01*
X005743Y015650D01*
X005743Y015510D01*
X005672Y015440D01*
X005532Y015440D01*
X005462Y015510D01*
X005002Y015440D02*
X005002Y015860D01*
X004910Y015122D02*
X007390Y015122D01*
X007390Y014178D01*
X004910Y014178D01*
X004910Y015122D01*
X005993Y015510D02*
X006063Y015440D01*
X005993Y015510D02*
X005993Y015790D01*
X005923Y015720D02*
X006063Y015720D01*
X006230Y015650D02*
X006230Y015510D01*
X006300Y015440D01*
X006440Y015440D01*
X006510Y015510D01*
X006510Y015650D01*
X006440Y015720D01*
X006300Y015720D01*
X006230Y015650D01*
X007294Y016220D02*
X007815Y016220D01*
X008045Y016114D02*
X009206Y016114D01*
X009206Y016311D01*
X009994Y016311D01*
X009994Y016114D01*
X011155Y016114D01*
X011155Y017886D01*
X008045Y017886D01*
X008045Y016114D01*
X007554Y015960D02*
X007554Y016481D01*
X008034Y015720D02*
X007964Y015650D01*
X007964Y015510D01*
X008034Y015440D01*
X008174Y015440D01*
X008244Y015510D01*
X008244Y015650D01*
X008174Y015720D01*
X008034Y015720D01*
X008424Y015720D02*
X008424Y015440D01*
X008704Y015440D02*
X008704Y015650D01*
X008634Y015720D01*
X008424Y015720D01*
X008884Y015650D02*
X008884Y015510D01*
X008954Y015440D01*
X009094Y015440D01*
X009165Y015580D02*
X008884Y015580D01*
X008884Y015650D02*
X008954Y015720D01*
X009094Y015720D01*
X009165Y015650D01*
X009165Y015580D01*
X009345Y015510D02*
X009345Y015720D01*
X009345Y015510D02*
X009415Y015440D01*
X009485Y015510D01*
X009555Y015440D01*
X009625Y015510D01*
X009625Y015720D01*
X009805Y015720D02*
X009875Y015720D01*
X009875Y015440D01*
X009805Y015440D02*
X009945Y015440D01*
X010112Y015440D02*
X010112Y015720D01*
X010112Y015580D02*
X010252Y015720D01*
X010322Y015720D01*
X010496Y015650D02*
X010496Y015510D01*
X010566Y015440D01*
X010706Y015440D01*
X010776Y015580D02*
X010496Y015580D01*
X010496Y015650D02*
X010566Y015720D01*
X010706Y015720D01*
X010776Y015650D01*
X010776Y015580D01*
X010956Y015440D02*
X011236Y015440D01*
X011096Y015440D02*
X011096Y015860D01*
X010956Y015720D01*
X011410Y015122D02*
X013890Y015122D01*
X013890Y014178D01*
X011410Y014178D01*
X011410Y015122D01*
X012054Y015960D02*
X012054Y016481D01*
X011794Y016220D02*
X012315Y016220D01*
X012545Y016114D02*
X013706Y016114D01*
X013706Y016311D01*
X014494Y016311D01*
X014494Y016114D01*
X015655Y016114D01*
X015655Y017886D01*
X012545Y017886D01*
X012545Y016114D01*
X012534Y015720D02*
X012464Y015650D01*
X012464Y015510D01*
X012534Y015440D01*
X012674Y015440D01*
X012744Y015510D01*
X012744Y015650D01*
X012674Y015720D01*
X012534Y015720D01*
X012924Y015720D02*
X012924Y015440D01*
X013204Y015440D02*
X013204Y015650D01*
X013134Y015720D01*
X012924Y015720D01*
X013384Y015650D02*
X013384Y015510D01*
X013454Y015440D01*
X013594Y015440D01*
X013665Y015580D02*
X013384Y015580D01*
X013384Y015650D02*
X013454Y015720D01*
X013594Y015720D01*
X013665Y015650D01*
X013665Y015580D01*
X013845Y015510D02*
X013915Y015440D01*
X013985Y015510D01*
X014055Y015440D01*
X014125Y015510D01*
X014125Y015720D01*
X014305Y015720D02*
X014375Y015720D01*
X014375Y015440D01*
X014305Y015440D02*
X014445Y015440D01*
X014612Y015440D02*
X014612Y015720D01*
X014612Y015580D02*
X014752Y015720D01*
X014822Y015720D01*
X014996Y015650D02*
X014996Y015510D01*
X015066Y015440D01*
X015206Y015440D01*
X015276Y015580D02*
X014996Y015580D01*
X014996Y015650D02*
X015066Y015720D01*
X015206Y015720D01*
X015276Y015650D01*
X015276Y015580D01*
X015456Y015440D02*
X015736Y015720D01*
X015736Y015790D01*
X015666Y015860D01*
X015526Y015860D01*
X015456Y015790D01*
X015456Y015440D02*
X015736Y015440D01*
X016294Y016220D02*
X016815Y016220D01*
X016554Y015960D02*
X016554Y016481D01*
X017145Y016114D02*
X018306Y016114D01*
X018306Y016311D01*
X019094Y016311D01*
X019094Y016114D01*
X020255Y016114D01*
X020255Y017886D01*
X017145Y017886D01*
X017145Y016114D01*
X017174Y015720D02*
X017034Y015720D01*
X016964Y015650D01*
X016964Y015510D01*
X017034Y015440D01*
X017174Y015440D01*
X017244Y015510D01*
X017244Y015650D01*
X017174Y015720D01*
X017424Y015720D02*
X017424Y015440D01*
X017424Y015720D02*
X017634Y015720D01*
X017704Y015650D01*
X017704Y015440D01*
X017884Y015510D02*
X017884Y015650D01*
X017954Y015720D01*
X018094Y015720D01*
X018165Y015650D01*
X018165Y015580D01*
X017884Y015580D01*
X017884Y015510D02*
X017954Y015440D01*
X018094Y015440D01*
X018345Y015510D02*
X018415Y015440D01*
X018485Y015510D01*
X018555Y015440D01*
X018625Y015510D01*
X018625Y015720D01*
X018805Y015720D02*
X018875Y015720D01*
X018875Y015440D01*
X018805Y015440D02*
X018945Y015440D01*
X019112Y015440D02*
X019112Y015720D01*
X019112Y015580D02*
X019252Y015720D01*
X019322Y015720D01*
X019496Y015650D02*
X019496Y015510D01*
X019566Y015440D01*
X019706Y015440D01*
X019776Y015580D02*
X019496Y015580D01*
X019496Y015650D02*
X019566Y015720D01*
X019706Y015720D01*
X019776Y015650D01*
X019776Y015580D01*
X019956Y015510D02*
X020026Y015440D01*
X020166Y015440D01*
X020236Y015510D01*
X020236Y015580D01*
X020166Y015650D01*
X020096Y015650D01*
X020166Y015650D02*
X020236Y015720D01*
X020236Y015790D01*
X020166Y015860D01*
X020026Y015860D01*
X019956Y015790D01*
X018875Y015860D02*
X018875Y015930D01*
X018345Y015720D02*
X018345Y015510D01*
X018900Y014650D02*
X018650Y014400D01*
X018650Y013900D01*
X018900Y013650D01*
X019400Y013650D01*
X019650Y013900D01*
X019650Y014400D01*
X019400Y014650D01*
X018900Y014650D01*
X019940Y014700D02*
X020360Y014700D01*
X020360Y014490D01*
X020290Y014420D01*
X020150Y014420D01*
X020080Y014490D01*
X020080Y014700D01*
X020150Y014240D02*
X020360Y014240D01*
X020150Y014240D02*
X020080Y014170D01*
X020080Y013960D01*
X020360Y013960D01*
X020290Y013780D02*
X020150Y013780D01*
X020150Y013640D01*
X020290Y013780D02*
X020360Y013710D01*
X020360Y013569D01*
X020290Y013499D01*
X020010Y013499D01*
X019940Y013569D01*
X019940Y013710D01*
X020010Y013780D01*
X020336Y012705D02*
X020336Y009595D01*
X018564Y009595D01*
X018564Y010756D01*
X018761Y010756D01*
X018761Y011544D01*
X018564Y011544D01*
X018564Y012705D01*
X020336Y012705D01*
X018815Y013220D02*
X018294Y013220D01*
X018554Y012960D02*
X018554Y013481D01*
X018360Y012666D02*
X017940Y012666D01*
X018150Y012456D01*
X018150Y012736D01*
X018150Y012276D02*
X018220Y012276D01*
X018220Y011996D01*
X018290Y011996D02*
X018150Y011996D01*
X018080Y012066D01*
X018080Y012206D01*
X018150Y012276D01*
X018360Y012206D02*
X018360Y012066D01*
X018290Y011996D01*
X018080Y011822D02*
X018080Y011752D01*
X018220Y011612D01*
X018360Y011612D02*
X018080Y011612D01*
X018080Y011375D02*
X018360Y011375D01*
X018360Y011305D02*
X018360Y011445D01*
X018080Y011375D02*
X018080Y011305D01*
X017940Y011375D02*
X017870Y011375D01*
X018080Y011125D02*
X018290Y011125D01*
X018360Y011055D01*
X018290Y010985D01*
X018360Y010915D01*
X018290Y010845D01*
X018080Y010845D01*
X018150Y010665D02*
X018220Y010665D01*
X018220Y010384D01*
X018290Y010384D02*
X018150Y010384D01*
X018080Y010454D01*
X018080Y010594D01*
X018150Y010665D01*
X018360Y010594D02*
X018360Y010454D01*
X018290Y010384D01*
X018360Y010204D02*
X018150Y010204D01*
X018080Y010134D01*
X018080Y009924D01*
X018360Y009924D01*
X018290Y009744D02*
X018150Y009744D01*
X018080Y009674D01*
X018080Y009534D01*
X018150Y009464D01*
X018290Y009464D01*
X018360Y009534D01*
X018360Y009674D01*
X018290Y009744D01*
X018554Y008981D02*
X018554Y008460D01*
X018294Y008720D02*
X018815Y008720D01*
X018564Y008155D02*
X018564Y006994D01*
X018761Y006994D01*
X018761Y006206D01*
X018564Y006206D01*
X018564Y005045D01*
X020336Y005045D01*
X020336Y008155D01*
X018564Y008155D01*
X018360Y008166D02*
X018360Y008026D01*
X018290Y007956D01*
X018150Y007956D02*
X018080Y008096D01*
X018080Y008166D01*
X018150Y008236D01*
X018290Y008236D01*
X018360Y008166D01*
X018150Y007956D02*
X017940Y007956D01*
X017940Y008236D01*
X018150Y007776D02*
X018080Y007706D01*
X018080Y007566D01*
X018150Y007496D01*
X018290Y007496D01*
X018360Y007566D01*
X018360Y007706D01*
X018220Y007776D02*
X018220Y007496D01*
X018080Y007322D02*
X018080Y007252D01*
X018220Y007112D01*
X018360Y007112D02*
X018080Y007112D01*
X018080Y006875D02*
X018360Y006875D01*
X018360Y006805D02*
X018360Y006945D01*
X018290Y006625D02*
X018080Y006625D01*
X018080Y006805D02*
X018080Y006875D01*
X017940Y006875D02*
X017870Y006875D01*
X018290Y006625D02*
X018360Y006555D01*
X018290Y006485D01*
X018360Y006415D01*
X018290Y006345D01*
X018080Y006345D01*
X018150Y006165D02*
X018080Y006094D01*
X018080Y005954D01*
X018150Y005884D01*
X018290Y005884D01*
X018360Y005954D01*
X018360Y006094D01*
X018220Y006165D02*
X018220Y005884D01*
X018150Y005704D02*
X018360Y005704D01*
X018150Y005704D02*
X018080Y005634D01*
X018080Y005424D01*
X018360Y005424D01*
X018290Y005244D02*
X018150Y005244D01*
X018080Y005174D01*
X018080Y005034D01*
X018150Y004964D01*
X018290Y004964D01*
X018360Y005034D01*
X018360Y005174D01*
X018290Y005244D01*
X018227Y004390D02*
X017987Y004390D01*
X017987Y003910D01*
X017987Y004070D02*
X018227Y004070D01*
X018307Y004150D01*
X018307Y004310D01*
X018227Y004390D01*
X018147Y004070D02*
X018307Y003910D01*
X018502Y003990D02*
X018502Y004150D01*
X018583Y004230D01*
X018743Y004230D01*
X018823Y004150D01*
X018823Y004070D01*
X018502Y004070D01*
X018502Y003990D02*
X018583Y003910D01*
X018743Y003910D01*
X019018Y003910D02*
X019258Y003910D01*
X019338Y003990D01*
X019258Y004070D01*
X019098Y004070D01*
X019018Y004150D01*
X019098Y004230D01*
X019338Y004230D01*
X019534Y004150D02*
X019614Y004230D01*
X019774Y004230D01*
X019854Y004150D01*
X019854Y004070D01*
X019534Y004070D01*
X019534Y003990D02*
X019534Y004150D01*
X019534Y003990D02*
X019614Y003910D01*
X019774Y003910D01*
X020129Y003990D02*
X020210Y003910D01*
X020129Y003990D02*
X020129Y004310D01*
X020049Y004230D02*
X020210Y004230D01*
X019550Y003350D02*
X018757Y003350D01*
X017950Y003000D02*
X017950Y001300D01*
X018745Y000950D02*
X019550Y000950D01*
X020350Y001300D02*
X020350Y003000D01*
X018450Y002150D02*
X018452Y002202D01*
X018458Y002254D01*
X018468Y002306D01*
X018481Y002356D01*
X018498Y002406D01*
X018519Y002454D01*
X018544Y002500D01*
X018572Y002544D01*
X018603Y002586D01*
X018637Y002626D01*
X018674Y002663D01*
X018714Y002697D01*
X018756Y002728D01*
X018800Y002756D01*
X018846Y002781D01*
X018894Y002802D01*
X018944Y002819D01*
X018994Y002832D01*
X019046Y002842D01*
X019098Y002848D01*
X019150Y002850D01*
X019202Y002848D01*
X019254Y002842D01*
X019306Y002832D01*
X019356Y002819D01*
X019406Y002802D01*
X019454Y002781D01*
X019500Y002756D01*
X019544Y002728D01*
X019586Y002697D01*
X019626Y002663D01*
X019663Y002626D01*
X019697Y002586D01*
X019728Y002544D01*
X019756Y002500D01*
X019781Y002454D01*
X019802Y002406D01*
X019819Y002356D01*
X019832Y002306D01*
X019842Y002254D01*
X019848Y002202D01*
X019850Y002150D01*
X019848Y002098D01*
X019842Y002046D01*
X019832Y001994D01*
X019819Y001944D01*
X019802Y001894D01*
X019781Y001846D01*
X019756Y001800D01*
X019728Y001756D01*
X019697Y001714D01*
X019663Y001674D01*
X019626Y001637D01*
X019586Y001603D01*
X019544Y001572D01*
X019500Y001544D01*
X019454Y001519D01*
X019406Y001498D01*
X019356Y001481D01*
X019306Y001468D01*
X019254Y001458D01*
X019202Y001452D01*
X019150Y001450D01*
X019098Y001452D01*
X019046Y001458D01*
X018994Y001468D01*
X018944Y001481D01*
X018894Y001498D01*
X018846Y001519D01*
X018800Y001544D01*
X018756Y001572D01*
X018714Y001603D01*
X018674Y001637D01*
X018637Y001674D01*
X018603Y001714D01*
X018572Y001756D01*
X018544Y001800D01*
X018519Y001846D01*
X018498Y001894D01*
X018481Y001944D01*
X018468Y001994D01*
X018458Y002046D01*
X018452Y002098D01*
X018450Y002150D01*
X018220Y006165D02*
X018150Y006165D01*
X018150Y007776D02*
X018220Y007776D01*
X013845Y015510D02*
X013845Y015720D01*
X014375Y015860D02*
X014375Y015930D01*
X009875Y015930D02*
X009875Y015860D01*
X004121Y012150D02*
X003841Y012150D01*
X005190Y007391D02*
X005260Y007391D01*
X005540Y007111D01*
X005610Y007111D01*
X005610Y006931D02*
X005610Y006650D01*
X005610Y006791D02*
X005190Y006791D01*
X005330Y006650D01*
X005330Y006470D02*
X005400Y006400D01*
X005400Y006260D01*
X005330Y006190D01*
X005260Y006190D01*
X005190Y006260D01*
X005190Y006400D01*
X005260Y006470D01*
X005330Y006470D01*
X005400Y006400D02*
X005470Y006470D01*
X005540Y006470D01*
X005610Y006400D01*
X005610Y006260D01*
X005540Y006190D01*
X005470Y006190D01*
X005400Y006260D01*
X005400Y006010D02*
X005540Y006010D01*
X005610Y005940D01*
X005610Y005800D01*
X005540Y005730D01*
X005400Y005730D02*
X005330Y005870D01*
X005330Y005940D01*
X005400Y006010D01*
X005190Y006010D02*
X005190Y005730D01*
X005400Y005730D01*
X005610Y005549D02*
X005190Y005549D01*
X005190Y005269D02*
X005610Y005549D01*
X005610Y005269D02*
X005190Y005269D01*
X005190Y004949D02*
X005610Y004949D01*
X005610Y004809D02*
X005610Y005089D01*
X005330Y004809D02*
X005190Y004949D01*
X006002Y003890D02*
X006243Y003890D01*
X006323Y003810D01*
X006323Y003730D01*
X006243Y003650D01*
X006002Y003650D01*
X006002Y003410D02*
X006243Y003410D01*
X006323Y003490D01*
X006323Y003570D01*
X006243Y003650D01*
X006518Y003490D02*
X006598Y003410D01*
X006838Y003410D01*
X006838Y003650D01*
X006758Y003730D01*
X006598Y003730D01*
X006598Y003570D02*
X006838Y003570D01*
X006598Y003570D02*
X006518Y003490D01*
X007034Y003730D02*
X007194Y003730D01*
X007114Y003810D02*
X007114Y003490D01*
X007194Y003410D01*
X007556Y003430D02*
X007556Y002800D01*
X007556Y003430D02*
X007811Y003430D01*
X007811Y000438D01*
X005489Y000438D01*
X005489Y003430D01*
X005744Y003430D01*
X005744Y002800D01*
X005315Y003150D02*
X004794Y003150D01*
X005054Y002890D02*
X005054Y003411D01*
X006002Y003410D02*
X006002Y003890D01*
X007190Y004949D02*
X007610Y004949D01*
X007610Y004809D02*
X007610Y005089D01*
X007610Y005269D02*
X007190Y005269D01*
X007610Y005549D01*
X007190Y005549D01*
X007190Y005730D02*
X007400Y005730D01*
X007330Y005870D01*
X007330Y005940D01*
X007400Y006010D01*
X007540Y006010D01*
X007610Y005940D01*
X007610Y005800D01*
X007540Y005730D01*
X007190Y005730D02*
X007190Y006010D01*
X007260Y006190D02*
X007330Y006190D01*
X007400Y006260D01*
X007400Y006400D01*
X007470Y006470D01*
X007540Y006470D01*
X007610Y006400D01*
X007610Y006260D01*
X007540Y006190D01*
X007470Y006190D01*
X007400Y006260D01*
X007400Y006400D02*
X007330Y006470D01*
X007260Y006470D01*
X007190Y006400D01*
X007190Y006260D01*
X007260Y006190D01*
X007330Y006650D02*
X007190Y006791D01*
X007610Y006791D01*
X007610Y006931D02*
X007610Y006650D01*
X007610Y007111D02*
X007540Y007111D01*
X007260Y007391D01*
X007190Y007391D01*
X007190Y007111D01*
X005190Y007111D02*
X005190Y007391D01*
X007190Y004949D02*
X007330Y004809D01*
D11*
X007012Y005330D02*
X006288Y005330D01*
X006288Y006970D01*
X007012Y006970D01*
X007012Y005330D01*
X006650Y005900D02*
X006650Y006150D01*
X006900Y006150D01*
X006650Y006150D02*
X006900Y006550D01*
X006400Y006550D01*
X006650Y006150D01*
X006400Y006150D01*
X006650Y006150D02*
X006650Y006750D01*
X005012Y006970D02*
X005012Y005330D01*
X004288Y005330D01*
X004288Y006970D01*
X005012Y006970D01*
X004650Y006400D02*
X004650Y006150D01*
X004400Y006150D01*
X004650Y006150D02*
X004900Y006150D01*
X004650Y006150D02*
X004900Y005750D01*
X004400Y005750D01*
X004650Y006150D01*
X004650Y005550D01*
X003470Y008288D02*
X001830Y008288D01*
X001830Y009012D01*
X003470Y009012D01*
X003470Y008288D01*
X002900Y008650D02*
X002650Y008650D01*
X002650Y008900D01*
X002650Y008650D02*
X002650Y008400D01*
X002650Y008650D02*
X002250Y008400D01*
X002250Y008900D01*
X002650Y008650D01*
X002050Y008650D01*
X005980Y008702D02*
X005980Y008816D01*
X006036Y008872D01*
X006263Y008645D01*
X006320Y008702D01*
X006320Y008816D01*
X006263Y008872D01*
X006036Y008872D01*
X005980Y008702D02*
X006036Y008645D01*
X006263Y008645D01*
X006263Y009014D02*
X006263Y009070D01*
X006320Y009070D01*
X006320Y009014D01*
X006263Y009014D01*
X006320Y009198D02*
X006320Y009425D01*
X006320Y009311D02*
X005980Y009311D01*
X006093Y009198D01*
X006093Y009566D02*
X006263Y009566D01*
X006320Y009623D01*
X006320Y009793D01*
X006093Y009793D01*
X006150Y009934D02*
X006150Y010048D01*
X006036Y009991D02*
X005980Y010048D01*
X006036Y009991D02*
X006320Y009991D01*
D12*
X003406Y015175D02*
X003176Y015175D01*
X003061Y015290D01*
X003061Y015750D01*
X003176Y015866D01*
X003406Y015866D01*
X003521Y015750D01*
X003521Y015290D02*
X003406Y015175D01*
X002729Y015520D02*
X002614Y015405D01*
X002269Y015405D01*
X001937Y015520D02*
X001822Y015405D01*
X001477Y015405D01*
X001477Y015175D02*
X001477Y015866D01*
X001822Y015866D01*
X001937Y015750D01*
X001937Y015520D01*
X002269Y015175D02*
X002269Y015866D01*
X002614Y015866D01*
X002729Y015750D01*
X002729Y015520D01*
X001145Y015175D02*
X001145Y015866D01*
X000685Y015866D02*
X001145Y015175D01*
X000685Y015175D02*
X000685Y015866D01*
D13*
X005005Y011750D02*
X005275Y011750D01*
X005275Y011570D02*
X005005Y011570D01*
X005095Y011660D01*
X005005Y011750D01*
X005005Y011365D02*
X005275Y011365D01*
X005275Y011275D02*
X005275Y011455D01*
X005095Y011275D02*
X005005Y011365D01*
X007025Y011375D02*
X007025Y011285D01*
X007070Y011240D01*
X007070Y011126D02*
X007115Y011126D01*
X007160Y011081D01*
X007205Y011126D01*
X007250Y011126D01*
X007295Y011081D01*
X007295Y010991D01*
X007250Y010946D01*
X007160Y011036D02*
X007160Y011081D01*
X007070Y011126D02*
X007025Y011081D01*
X007025Y010991D01*
X007070Y010946D01*
X007250Y011240D02*
X007295Y011285D01*
X007295Y011375D01*
X007250Y011420D01*
X007205Y011420D01*
X007160Y011375D01*
X007160Y011330D01*
X007160Y011375D02*
X007115Y011420D01*
X007070Y011420D01*
X007025Y011375D01*
X007070Y011535D02*
X007025Y011580D01*
X007025Y011670D01*
X007070Y011715D01*
X007250Y011535D01*
X007295Y011580D01*
X007295Y011670D01*
X007250Y011715D01*
X007070Y011715D01*
X007025Y011829D02*
X007295Y011829D01*
X007205Y011829D02*
X007115Y011965D01*
X007205Y011829D02*
X007295Y011965D01*
X007250Y011535D02*
X007070Y011535D01*
X008150Y013650D02*
X017150Y013650D01*
X017150Y000650D01*
X008150Y000650D01*
X008150Y013650D01*
X006465Y014505D02*
X006329Y014595D01*
X006465Y014685D01*
X006329Y014775D02*
X006329Y014505D01*
X006215Y014730D02*
X006035Y014550D01*
X006035Y014505D01*
X005920Y014505D02*
X005740Y014505D01*
X005920Y014685D01*
X005920Y014730D01*
X005875Y014775D01*
X005785Y014775D01*
X005740Y014730D01*
X006035Y014775D02*
X006215Y014775D01*
X006215Y014730D01*
X011775Y014660D02*
X011955Y014660D01*
X011910Y014525D02*
X011910Y014795D01*
X011775Y014660D01*
X012070Y014570D02*
X012115Y014570D01*
X012115Y014525D01*
X012070Y014525D01*
X012070Y014570D01*
X012217Y014570D02*
X012217Y014525D01*
X012217Y014570D02*
X012397Y014750D01*
X012397Y014795D01*
X012217Y014795D01*
X012512Y014795D02*
X012512Y014525D01*
X012512Y014615D02*
X012647Y014705D01*
X012512Y014615D02*
X012647Y014525D01*
D14*
X004644Y006700D03*
X006656Y005600D03*
D15*
X006650Y005205D03*
X004650Y005205D03*
X004650Y007095D03*
X006650Y007095D03*
D16*
X003200Y008656D03*
D17*
X003595Y008650D03*
X001705Y008650D03*
M02*
